<?xml version="1.0" encoding="utf-8"?>
<!-- Generator: Adobe Illustrator 24.1.1, SVG Export Plug-In . SVG Version: 6.00 Build 0)  -->
<svg version="1.1" id="Ebene_1" xmlns:xml="http://www.w3.org/XML/1998/namespace"
	 xmlns="http://www.w3.org/2000/svg" xmlns:xlink="http://www.w3.org/1999/xlink" x="0px" y="0px" width="57.8px" height="37.8px"
	 viewBox="0 0 57.8 37.8" enable-background="new 0 0 57.8 37.8" xml:space="preserve">
<desc>
	<referenceFile>NodeMCUSchema.svg</referenceFile>
</desc>
<g transform="matrix(1 0 0 1 51.6953 16.3164)">
	<g>
		<g>
			<g>
				<g>
					<g>
						<g>
							<g>
								<g>
									<g>
										<text transform="matrix(1 0 0 1 -11.0734 -7.0024)" fill="#231F20" font-family="'DroidSans'" font-size="3.5px">VCC</text>
									</g>
								</g>
							</g>
						</g>
					</g>
				</g>
			</g>
		</g>
	</g>
</g>
<g transform="matrix(1 0 0 1 51.6953 23.5078)">
	<g>
		<g>
			<g>
				<g>
					<g>
						<g>
							<g>
								<g>
									<g>
										<text transform="matrix(1 0 0 1 -11.0734 -7.0024)" fill="#231F20" font-family="'DroidSans'" font-size="3.5px">RXD</text>
									</g>
								</g>
							</g>
						</g>
					</g>
				</g>
			</g>
		</g>
	</g>
</g>
<g transform="matrix(1 0 0 1 51.6953 30.6992)">
	<g>
		<g>
			<g>
				<g>
					<g>
						<g>
							<g>
								<g>
									<g>
										<text transform="matrix(1 0 0 1 -11.0734 -7.0024)" fill="#231F20" font-family="'DroidSans'" font-size="3.5px">TXD</text>
									</g>
								</g>
							</g>
						</g>
					</g>
				</g>
			</g>
		</g>
	</g>
</g>
<g transform="matrix(1 0 0 1 51.6953 37.8906)">
	<g>
		<g>
			<g>
				<g>
					<g>
						<g>
							<g>
								<g>
									<g>
										<text transform="matrix(1 0 0 1 -11.0734 -7.0024)" fill="#231F20" font-family="'DroidSans'" font-size="3.5px">GND</text>
									</g>
								</g>
							</g>
						</g>
					</g>
				</g>
			</g>
		</g>
	</g>
</g>
<rect x="0.2" y="0.2" fill="none" stroke="#231F20" stroke-width="0.3972" stroke-miterlimit="10" width="50.4" height="37.4"/>
<line id="connector0pin" fill="none" stroke="#231F20" stroke-miterlimit="10" x1="50.5" y1="8.4" x2="57.8" y2="8.5"/>
<line id="connector1pin" fill="none" stroke="#231F20" stroke-miterlimit="10" x1="50.5" y1="15.7" x2="57.8" y2="15.7"/>
<line id="connector2pin" fill="none" stroke="#231F20" stroke-miterlimit="10" x1="50.5" y1="22.9" x2="57.8" y2="22.9"/>
<line id="connector3pin" fill="none" stroke="#231F20" stroke-miterlimit="10" x1="50.5" y1="30" x2="57.8" y2="30"/>
<g transform="matrix(1 0 0 1 23.9336 53.4004)">
	<g>
		<g>
			<g>
				<g>
					<g>
						<g>
							<g>
								<g>
									<g>
										<text transform="matrix(1 0 0 1 -9.7388 -37.7479)" font-family="'DroidSans'" font-size="4.25px">MAX3232</text>
										<text transform="matrix(1 0 0 1 -8.9388 -32.6479)" font-family="'DroidSans'" font-size="4.25px">Breakout</text>
										<text transform="matrix(1 0 0 1 -6.0388 -27.5479)" font-family="'DroidSans'" font-size="4.25px">Board</text>
									</g>
								</g>
							</g>
						</g>
					</g>
				</g>
			</g>
		</g>
	</g>
</g>
</svg>
